<?xml version="1.0" encoding="UTF-8" standalone="no"?>
<!DOCTYPE svg PUBLIC "-//W3C//DTD SVG 1.1//EN"
 "http://www.w3.org/Graphics/SVG/1.1/DTD/svg11.dtd">
<!-- Generated by graphviz version 5.0.0 (20220707.1540)
 -->
<!-- Title: StorageDiagram Pages: 1 -->
<svg width="1391pt" height="381pt"
 viewBox="0.00 0.00 1391.00 381.00" xmlns="http://www.w3.org/2000/svg" xmlns:xlink="http://www.w3.org/1999/xlink">
<g id="graph0" class="graph" transform="scale(1 1) rotate(0) translate(4 377)">
<title>StorageDiagram</title>
<polygon fill="white" stroke="transparent" points="-4,4 -4,-377 1387,-377 1387,4 -4,4"/>
<!-- 2 -->
<g id="node1" class="node">
<title>2</title>
<polygon fill="#f2f2f2" stroke="black" points="0,-0.5 0,-372.5 536.08,-372.5 536.08,-0.5 0,-0.5"/>
<text text-anchor="middle" x="268.04" y="-355.9" font-family="Courier New" font-size="14.00">GasContract &lt;&lt;Contract&gt;&gt;</text>
<polyline fill="none" stroke="black" points="0,-347.7 536.08,-347.7 "/>
<text text-anchor="middle" x="24.8" y="-331.1" font-family="Courier New" font-size="14.00">slot</text>
<polyline fill="none" stroke="black" points="0,-322.9 49.61,-322.9 "/>
<text text-anchor="middle" x="24.8" y="-306.3" font-family="Courier New" font-size="14.00">0</text>
<polyline fill="none" stroke="black" points="0,-298.1 49.61,-298.1 "/>
<text text-anchor="middle" x="24.8" y="-281.5" font-family="Courier New" font-size="14.00">1</text>
<polyline fill="none" stroke="black" points="0,-273.3 49.61,-273.3 "/>
<text text-anchor="middle" x="24.8" y="-256.7" font-family="Courier New" font-size="14.00">2</text>
<polyline fill="none" stroke="black" points="0,-248.5 49.61,-248.5 "/>
<text text-anchor="middle" x="24.8" y="-231.9" font-family="Courier New" font-size="14.00">3</text>
<polyline fill="none" stroke="black" points="0,-223.7 49.61,-223.7 "/>
<text text-anchor="middle" x="24.8" y="-207.1" font-family="Courier New" font-size="14.00">4</text>
<polyline fill="none" stroke="black" points="0,-198.9 49.61,-198.9 "/>
<text text-anchor="middle" x="24.8" y="-182.3" font-family="Courier New" font-size="14.00">5</text>
<polyline fill="none" stroke="black" points="0,-174.1 49.61,-174.1 "/>
<text text-anchor="middle" x="24.8" y="-157.5" font-family="Courier New" font-size="14.00">6</text>
<polyline fill="none" stroke="black" points="0,-149.3 49.61,-149.3 "/>
<text text-anchor="middle" x="24.8" y="-132.7" font-family="Courier New" font-size="14.00">7</text>
<polyline fill="none" stroke="black" points="0,-124.5 49.61,-124.5 "/>
<text text-anchor="middle" x="24.8" y="-107.9" font-family="Courier New" font-size="14.00">8</text>
<polyline fill="none" stroke="black" points="0,-99.7 49.61,-99.7 "/>
<text text-anchor="middle" x="24.8" y="-83.1" font-family="Courier New" font-size="14.00">9</text>
<polyline fill="none" stroke="black" points="0,-74.9 49.61,-74.9 "/>
<text text-anchor="middle" x="24.8" y="-58.3" font-family="Courier New" font-size="14.00">10</text>
<polyline fill="none" stroke="black" points="0,-50.1 49.61,-50.1 "/>
<text text-anchor="middle" x="24.8" y="-33.5" font-family="Courier New" font-size="14.00">11</text>
<polyline fill="none" stroke="black" points="0,-25.3 49.61,-25.3 "/>
<text text-anchor="middle" x="24.8" y="-8.7" font-family="Courier New" font-size="14.00">12</text>
<polyline fill="none" stroke="black" points="49.61,-0.5 49.61,-347.7 "/>
<text text-anchor="middle" x="292.84" y="-331.1" font-family="Courier New" font-size="14.00">type: &lt;inherited contract&gt;.variable (bytes)</text>
<polyline fill="none" stroke="black" points="49.61,-322.9 536.08,-322.9 "/>
<text text-anchor="middle" x="145.82" y="-306.3" font-family="Courier New" font-size="14.00">unallocated (12)</text>
<polyline fill="none" stroke="black" points="242.03,-298.1 242.03,-322.9 "/>
<text text-anchor="middle" x="388.65" y="-306.3" font-family="Courier New" font-size="14.00">address: Ownable._owner (20)</text>
<polyline fill="none" stroke="black" points="49.61,-298.1 536.08,-298.1 "/>
<text text-anchor="middle" x="292.62" y="-281.5" font-family="Courier New" font-size="14.00">uint256: totalSupply (32)</text>
<polyline fill="none" stroke="black" points="49.61,-273.3 536.08,-273.3 "/>
<text text-anchor="middle" x="292.72" y="-256.7" font-family="Courier New" font-size="14.00">uint256: paymentCounter (32)</text>
<polyline fill="none" stroke="black" points="49.61,-248.5 536.08,-248.5 "/>
<text text-anchor="middle" x="292.63" y="-231.9" font-family="Courier New" font-size="14.00">mapping(address=&gt;uint256): balances (32)</text>
<polyline fill="none" stroke="black" points="49.61,-223.7 536.08,-223.7 "/>
<text text-anchor="middle" x="292.53" y="-207.1" font-family="Courier New" font-size="14.00">mapping(address=&gt;Payment[]): payments (32)</text>
<polyline fill="none" stroke="black" points="49.61,-198.9 536.08,-198.9 "/>
<text text-anchor="middle" x="292.83" y="-182.3" font-family="Courier New" font-size="14.00">mapping(address=&gt;uint256): whitelist (32)</text>
<polyline fill="none" stroke="black" points="49.61,-174.1 536.08,-174.1 "/>
<text text-anchor="middle" x="292.84" y="-157.5" font-family="Courier New" font-size="14.00">mapping(address=&gt;uint256): _whitelistTransferAmount (32)</text>
<polyline fill="none" stroke="black" points="49.61,-149.3 536.08,-149.3 "/>
<text text-anchor="middle" x="292.64" y="-132.7" font-family="Courier New" font-size="14.00">mapping(address=&gt;uint256): isOddWhitelistUser (32)</text>
<polyline fill="none" stroke="black" points="49.61,-124.5 536.08,-124.5 "/>
<text text-anchor="middle" x="145.82" y="-107.9" font-family="Courier New" font-size="14.00">unallocated (12)</text>
<polyline fill="none" stroke="black" points="242.03,-99.7 242.03,-124.5 "/>
<text text-anchor="middle" x="388.65" y="-107.9" font-family="Courier New" font-size="14.00">address: administrator0 (20)</text>
<polyline fill="none" stroke="black" points="49.61,-99.7 536.08,-99.7 "/>
<text text-anchor="middle" x="145.82" y="-83.1" font-family="Courier New" font-size="14.00">unallocated (12)</text>
<polyline fill="none" stroke="black" points="242.03,-74.9 242.03,-99.7 "/>
<text text-anchor="middle" x="388.65" y="-83.1" font-family="Courier New" font-size="14.00">address: administrator1 (20)</text>
<polyline fill="none" stroke="black" points="49.61,-74.9 536.08,-74.9 "/>
<text text-anchor="middle" x="145.82" y="-58.3" font-family="Courier New" font-size="14.00">unallocated (12)</text>
<polyline fill="none" stroke="black" points="242.03,-50.1 242.03,-74.9 "/>
<text text-anchor="middle" x="388.65" y="-58.3" font-family="Courier New" font-size="14.00">address: administrator2 (20)</text>
<polyline fill="none" stroke="black" points="49.61,-50.1 536.08,-50.1 "/>
<text text-anchor="middle" x="145.82" y="-33.5" font-family="Courier New" font-size="14.00">unallocated (12)</text>
<polyline fill="none" stroke="black" points="242.03,-25.3 242.03,-50.1 "/>
<text text-anchor="middle" x="388.65" y="-33.5" font-family="Courier New" font-size="14.00">address: administrator3 (20)</text>
<polyline fill="none" stroke="black" points="49.61,-25.3 536.08,-25.3 "/>
<text text-anchor="middle" x="145.82" y="-8.7" font-family="Courier New" font-size="14.00">unallocated (12)</text>
<polyline fill="none" stroke="black" points="242.03,-0.5 242.03,-25.3 "/>
<text text-anchor="middle" x="388.65" y="-8.7" font-family="Courier New" font-size="14.00">address: administrator4 (20)</text>
</g>
<!-- 1 -->
<g id="node2" class="node">
<title>1</title>
<polygon fill="#f2f2f2" stroke="black" points="572.08,-137.1 572.08,-285.9 1383,-285.9 1383,-137.1 572.08,-137.1"/>
<text text-anchor="middle" x="977.54" y="-269.3" font-family="Courier New" font-size="14.00">Payment &lt;&lt;Struct&gt;&gt;</text>
<polyline fill="none" stroke="black" points="572.08,-261.1 1383,-261.1 "/>
<text text-anchor="middle" x="605.29" y="-244.5" font-family="Courier New" font-size="14.00">offset</text>
<polyline fill="none" stroke="black" points="572.08,-236.3 638.49,-236.3 "/>
<text text-anchor="middle" x="605.29" y="-219.7" font-family="Courier New" font-size="14.00">0</text>
<polyline fill="none" stroke="black" points="572.08,-211.5 638.49,-211.5 "/>
<text text-anchor="middle" x="605.29" y="-194.9" font-family="Courier New" font-size="14.00">1</text>
<polyline fill="none" stroke="black" points="572.08,-186.7 638.49,-186.7 "/>
<text text-anchor="middle" x="605.29" y="-170.1" font-family="Courier New" font-size="14.00">2</text>
<polyline fill="none" stroke="black" points="572.08,-161.9 638.49,-161.9 "/>
<text text-anchor="middle" x="605.29" y="-145.3" font-family="Courier New" font-size="14.00">3</text>
<polyline fill="none" stroke="black" points="638.49,-137.1 638.49,-261.1 "/>
<text text-anchor="middle" x="1010.75" y="-244.5" font-family="Courier New" font-size="14.00">type: variable (bytes)</text>
<polyline fill="none" stroke="black" points="638.49,-236.3 1383,-236.3 "/>
<text text-anchor="middle" x="809.7" y="-219.7" font-family="Courier New" font-size="14.00">unallocated (12)</text>
<polyline fill="none" stroke="black" points="980.91,-211.5 980.91,-236.3 "/>
<text text-anchor="middle" x="1181.53" y="-219.7" font-family="Courier New" font-size="14.00">address: recipient (20)</text>
<polyline fill="none" stroke="black" points="638.49,-211.5 1383,-211.5 "/>
<text text-anchor="middle" x="709.5" y="-194.9" font-family="Courier New" font-size="14.00">unallocated (3)</text>
<polyline fill="none" stroke="black" points="780.51,-186.7 780.51,-211.5 "/>
<text text-anchor="middle" x="893.53" y="-194.9" font-family="Courier New" font-size="14.00">bytes8: recipientName (8)</text>
<polyline fill="none" stroke="black" points="1006.54,-186.7 1006.54,-211.5 "/>
<text text-anchor="middle" x="1106.96" y="-194.9" font-family="Courier New" font-size="14.00">bool: adminUpdated (1)</text>
<polyline fill="none" stroke="black" points="1207.38,-186.7 1207.38,-211.5 "/>
<text text-anchor="middle" x="1295.19" y="-194.9" font-family="Courier New" font-size="14.00">address: admin (20)</text>
<polyline fill="none" stroke="black" points="638.49,-186.7 1383,-186.7 "/>
<text text-anchor="middle" x="1010.61" y="-170.1" font-family="Courier New" font-size="14.00">uint256: paymentID (32)</text>
<polyline fill="none" stroke="black" points="638.49,-161.9 1383,-161.9 "/>
<text text-anchor="middle" x="1010.5" y="-145.3" font-family="Courier New" font-size="14.00">uint256: amount (32)</text>
</g>
<!-- 2&#45;&gt;1 -->
<g id="edge1" class="edge">
<title>2:11&#45;&gt;1</title>
<path fill="none" stroke="black" d="M536.04,-211.5C544.56,-211.5 553.17,-211.5 561.85,-211.5"/>
<polygon fill="black" stroke="black" points="562.08,-215 572.08,-211.5 562.08,-208 562.08,-215"/>
</g>
</g>
</svg>
