<?xml version="1.0" encoding="UTF-8" standalone="no"?>
<!DOCTYPE svg PUBLIC "-//W3C//DTD SVG 1.1//EN"
 "http://www.w3.org/Graphics/SVG/1.1/DTD/svg11.dtd">
<!-- Generated by graphviz version 5.0.0 (20220707.1540)
 -->
<!-- Title: StorageDiagram Pages: 1 -->
<svg width="1041pt" height="117pt"
 viewBox="0.00 0.00 1041.35 116.80" xmlns="http://www.w3.org/2000/svg" xmlns:xlink="http://www.w3.org/1999/xlink">
<g id="graph0" class="graph" transform="scale(1 1) rotate(0) translate(4 112.8)">
<title>StorageDiagram</title>
<polygon fill="white" stroke="transparent" points="-4,4 -4,-112.8 1037.35,-112.8 1037.35,4 -4,4"/>
<!-- 2 -->
<g id="node1" class="node">
<title>2</title>
<polygon fill="#f2f2f2" stroke="black" points="0,-33.9 0,-108.3 426.86,-108.3 426.86,-33.9 0,-33.9"/>
<text text-anchor="middle" x="213.43" y="-91.7" font-family="Courier New" font-size="14.00">Homework02 &lt;&lt;Contract&gt;&gt;</text>
<polyline fill="none" stroke="black" points="0,-83.5 426.86,-83.5 "/>
<text text-anchor="middle" x="24.8" y="-66.9" font-family="Courier New" font-size="14.00">slot</text>
<polyline fill="none" stroke="black" points="0,-58.7 49.61,-58.7 "/>
<text text-anchor="middle" x="24.8" y="-42.1" font-family="Courier New" font-size="14.00">0</text>
<polyline fill="none" stroke="black" points="49.61,-33.9 49.61,-83.5 "/>
<text text-anchor="middle" x="238.23" y="-66.9" font-family="Courier New" font-size="14.00">type: &lt;inherited contract&gt;.variable (bytes)</text>
<polyline fill="none" stroke="black" points="49.61,-58.7 426.86,-58.7 "/>
<text text-anchor="middle" x="238.12" y="-42.1" font-family="Courier New" font-size="14.00">uint256[]: __myArray (32)</text>
</g>
<!-- 1 -->
<g id="node2" class="node">
<title>1</title>
<polygon fill="#f2f2f2" stroke="black" points="462.86,-0.5 462.86,-91.7 1033.35,-91.7 1033.35,-0.5 462.86,-0.5"/>
<text text-anchor="middle" x="748.11" y="-75.1" font-family="Courier New" font-size="14.00">uint256[]: __myArray &lt;&lt;Array&gt;&gt;</text>
<text text-anchor="middle" x="748.11" y="-58.3" font-family="Courier New" font-size="14.00">0x290decd9548b62a8d60345a988386fc84ba6bc95484008f6362f93160ef3e563</text>
<polyline fill="none" stroke="black" points="462.86,-50.1 1033.35,-50.1 "/>
<text text-anchor="middle" x="571.57" y="-33.5" font-family="Courier New" font-size="14.00">offset</text>
<polyline fill="none" stroke="black" points="462.86,-25.3 680.27,-25.3 "/>
<text text-anchor="middle" x="571.57" y="-8.7" font-family="Courier New" font-size="14.00">0</text>
<polyline fill="none" stroke="black" points="680.27,-0.5 680.27,-50.1 "/>
<text text-anchor="middle" x="856.69" y="-33.5" font-family="Courier New" font-size="14.00">type: variable (bytes)</text>
<polyline fill="none" stroke="black" points="680.27,-25.3 1033.1,-25.3 "/>
<text text-anchor="middle" x="856.68" y="-8.7" font-family="Courier New" font-size="14.00">uint256 (32)</text>
</g>
<!-- 2&#45;&gt;1 -->
<g id="edge1" class="edge">
<title>2:2&#45;&gt;1</title>
<path fill="none" stroke="black" d="M426.86,-46.1C435.26,-46.1 443.77,-46.1 452.37,-46.1"/>
<polygon fill="black" stroke="black" points="452.49,-49.6 462.49,-46.1 452.49,-42.6 452.49,-49.6"/>
</g>
</g>
</svg>
