<?xml version="1.0" encoding="UTF-8" standalone="no"?>
<!DOCTYPE svg PUBLIC "-//W3C//DTD SVG 1.1//EN"
 "http://www.w3.org/Graphics/SVG/1.1/DTD/svg11.dtd">
<!-- Generated by graphviz version 5.0.0 (20220707.1540)
 -->
<!-- Title: StorageDiagram Pages: 1 -->
<svg width="1930pt" height="332pt"
 viewBox="0.00 0.00 1930.28 331.80" xmlns="http://www.w3.org/2000/svg" xmlns:xlink="http://www.w3.org/1999/xlink">
<g id="graph0" class="graph" transform="scale(1 1) rotate(0) translate(4 327.8)">
<title>StorageDiagram</title>
<polygon fill="white" stroke="transparent" points="-4,4 -4,-327.8 1926.28,-327.8 1926.28,4 -4,4"/>
<!-- 4 -->
<g id="node1" class="node">
<title>4</title>
<polygon fill="#f2f2f2" stroke="black" points="0,-75.3 0,-323.3 452.07,-323.3 452.07,-75.3 0,-75.3"/>
<text text-anchor="middle" x="226.03" y="-306.7" font-family="Courier New" font-size="14.00">GasContract &lt;&lt;Contract&gt;&gt;</text>
<polyline fill="none" stroke="black" points="0,-298.5 452.07,-298.5 "/>
<text text-anchor="middle" x="24.8" y="-281.9" font-family="Courier New" font-size="14.00">slot</text>
<polyline fill="none" stroke="black" points="0,-273.7 49.61,-273.7 "/>
<text text-anchor="middle" x="24.8" y="-257.1" font-family="Courier New" font-size="14.00">0</text>
<polyline fill="none" stroke="black" points="0,-248.9 49.61,-248.9 "/>
<text text-anchor="middle" x="24.8" y="-232.3" font-family="Courier New" font-size="14.00">1</text>
<polyline fill="none" stroke="black" points="0,-224.1 49.61,-224.1 "/>
<text text-anchor="middle" x="24.8" y="-207.5" font-family="Courier New" font-size="14.00">2</text>
<polyline fill="none" stroke="black" points="0,-199.3 49.61,-199.3 "/>
<text text-anchor="middle" x="24.8" y="-182.7" font-family="Courier New" font-size="14.00">3</text>
<polyline fill="none" stroke="black" points="0,-174.5 49.61,-174.5 "/>
<text text-anchor="middle" x="24.8" y="-157.9" font-family="Courier New" font-size="14.00">4</text>
<polyline fill="none" stroke="black" points="0,-149.7 49.61,-149.7 "/>
<text text-anchor="middle" x="24.8" y="-133.1" font-family="Courier New" font-size="14.00">5</text>
<polyline fill="none" stroke="black" points="0,-124.9 49.61,-124.9 "/>
<text text-anchor="middle" x="24.8" y="-108.3" font-family="Courier New" font-size="14.00">6</text>
<polyline fill="none" stroke="black" points="0,-100.1 49.61,-100.1 "/>
<text text-anchor="middle" x="24.8" y="-83.5" font-family="Courier New" font-size="14.00">7</text>
<polyline fill="none" stroke="black" points="49.61,-75.3 49.61,-298.5 "/>
<text text-anchor="middle" x="250.84" y="-281.9" font-family="Courier New" font-size="14.00">type: &lt;inherited contract&gt;.variable (bytes)</text>
<polyline fill="none" stroke="black" points="49.61,-273.7 452.07,-273.7 "/>
<text text-anchor="middle" x="124.82" y="-257.1" font-family="Courier New" font-size="14.00">unallocated (12)</text>
<polyline fill="none" stroke="black" points="200.03,-248.9 200.03,-273.7 "/>
<text text-anchor="middle" x="325.65" y="-257.1" font-family="Courier New" font-size="14.00">address: Ownable._owner (20)</text>
<polyline fill="none" stroke="black" points="49.61,-248.9 452.07,-248.9 "/>
<text text-anchor="middle" x="250.62" y="-232.3" font-family="Courier New" font-size="14.00">uint256: totalSupply (32)</text>
<polyline fill="none" stroke="black" points="49.61,-224.1 452.07,-224.1 "/>
<text text-anchor="middle" x="250.72" y="-207.5" font-family="Courier New" font-size="14.00">uint256: paymentCounter (32)</text>
<polyline fill="none" stroke="black" points="49.61,-199.3 452.07,-199.3 "/>
<text text-anchor="middle" x="250.63" y="-182.7" font-family="Courier New" font-size="14.00">History[]: paymentHistory (32)</text>
<polyline fill="none" stroke="black" points="49.61,-174.5 452.07,-174.5 "/>
<text text-anchor="middle" x="250.63" y="-157.9" font-family="Courier New" font-size="14.00">mapping(address=&gt;uint256): balances (32)</text>
<polyline fill="none" stroke="black" points="49.61,-149.7 452.07,-149.7 "/>
<text text-anchor="middle" x="250.53" y="-133.1" font-family="Courier New" font-size="14.00">mapping(address=&gt;Payment[]): payments (32)</text>
<polyline fill="none" stroke="black" points="49.61,-124.9 452.07,-124.9 "/>
<text text-anchor="middle" x="250.83" y="-108.3" font-family="Courier New" font-size="14.00">mapping(address=&gt;uint256): whitelist (32)</text>
<polyline fill="none" stroke="black" points="49.61,-100.1 452.07,-100.1 "/>
<text text-anchor="middle" x="250.84" y="-83.5" font-family="Courier New" font-size="14.00">mapping(uint256=&gt;address): administrators (32)</text>
</g>
<!-- 2 -->
<g id="node3" class="node">
<title>2</title>
<polygon fill="#f2f2f2" stroke="black" points="616.68,-192.7 616.68,-283.9 1187.17,-283.9 1187.17,-192.7 616.68,-192.7"/>
<text text-anchor="middle" x="901.93" y="-267.3" font-family="Courier New" font-size="14.00">History[]: paymentHistory &lt;&lt;Array&gt;&gt;</text>
<text text-anchor="middle" x="901.93" y="-250.5" font-family="Courier New" font-size="14.00">0xc2575a0e9e593c00f959f8c92f12db2869c3395a3b0502d05e2516446f71f85b</text>
<polyline fill="none" stroke="black" points="616.68,-242.3 1187.17,-242.3 "/>
<text text-anchor="middle" x="725.39" y="-225.7" font-family="Courier New" font-size="14.00">offset</text>
<polyline fill="none" stroke="black" points="616.68,-217.5 834.09,-217.5 "/>
<text text-anchor="middle" x="725.39" y="-200.9" font-family="Courier New" font-size="14.00">0&#45;2</text>
<polyline fill="none" stroke="black" points="834.09,-192.7 834.09,-242.3 "/>
<text text-anchor="middle" x="1010.51" y="-225.7" font-family="Courier New" font-size="14.00">type: variable (bytes)</text>
<polyline fill="none" stroke="black" points="834.09,-217.5 1186.92,-217.5 "/>
<text text-anchor="middle" x="1010.5" y="-200.9" font-family="Courier New" font-size="14.00">History (96)</text>
</g>
<!-- 4&#45;&gt;2 -->
<g id="edge1" class="edge">
<title>4:8&#45;&gt;2</title>
<path fill="none" stroke="black" d="M452.07,-187.3C502.07,-187.3 555,-190.46 606.3,-195.21"/>
<polygon fill="black" stroke="black" points="606.25,-198.72 616.54,-196.18 606.92,-191.76 606.25,-198.72"/>
</g>
<!-- 3 -->
<g id="node4" class="node">
<title>3</title>
<polygon fill="#f2f2f2" stroke="black" points="488.07,-0.5 488.07,-174.1 1315.79,-174.1 1315.79,-0.5 488.07,-0.5"/>
<text text-anchor="middle" x="901.93" y="-157.5" font-family="Courier New" font-size="14.00">Payment &lt;&lt;Struct&gt;&gt;</text>
<polyline fill="none" stroke="black" points="488.07,-149.3 1315.79,-149.3 "/>
<text text-anchor="middle" x="521.27" y="-132.7" font-family="Courier New" font-size="14.00">offset</text>
<polyline fill="none" stroke="black" points="488.07,-124.5 554.48,-124.5 "/>
<text text-anchor="middle" x="521.27" y="-107.9" font-family="Courier New" font-size="14.00">0</text>
<polyline fill="none" stroke="black" points="488.07,-99.7 554.48,-99.7 "/>
<text text-anchor="middle" x="521.27" y="-83.1" font-family="Courier New" font-size="14.00">1</text>
<polyline fill="none" stroke="black" points="488.07,-74.9 554.48,-74.9 "/>
<text text-anchor="middle" x="521.27" y="-58.3" font-family="Courier New" font-size="14.00">2</text>
<polyline fill="none" stroke="black" points="488.07,-50.1 554.48,-50.1 "/>
<text text-anchor="middle" x="521.27" y="-33.5" font-family="Courier New" font-size="14.00">3</text>
<polyline fill="none" stroke="black" points="488.07,-25.3 554.48,-25.3 "/>
<text text-anchor="middle" x="521.27" y="-8.7" font-family="Courier New" font-size="14.00">4</text>
<polyline fill="none" stroke="black" points="554.48,-0.5 554.48,-149.3 "/>
<text text-anchor="middle" x="935.13" y="-132.7" font-family="Courier New" font-size="14.00">type: variable (bytes)</text>
<polyline fill="none" stroke="black" points="554.48,-124.5 1315.79,-124.5 "/>
<text text-anchor="middle" x="629.69" y="-107.9" font-family="Courier New" font-size="14.00">unallocated (10)</text>
<polyline fill="none" stroke="black" points="704.9,-99.7 704.9,-124.5 "/>
<text text-anchor="middle" x="809.51" y="-107.9" font-family="Courier New" font-size="14.00">address: recipient (20)</text>
<polyline fill="none" stroke="black" points="914.13,-99.7 914.13,-124.5 "/>
<text text-anchor="middle" x="1014.54" y="-107.9" font-family="Courier New" font-size="14.00">bool: adminUpdated (1)</text>
<polyline fill="none" stroke="black" points="1114.96,-99.7 1114.96,-124.5 "/>
<text text-anchor="middle" x="1215.38" y="-107.9" font-family="Courier New" font-size="14.00">uint8: paymentType (1)</text>
<polyline fill="none" stroke="black" points="554.48,-99.7 1315.79,-99.7 "/>
<text text-anchor="middle" x="738.19" y="-83.1" font-family="Courier New" font-size="14.00">unallocated (12)</text>
<polyline fill="none" stroke="black" points="921.9,-74.9 921.9,-99.7 "/>
<text text-anchor="middle" x="1118.71" y="-83.1" font-family="Courier New" font-size="14.00">address: admin (20)</text>
<polyline fill="none" stroke="black" points="554.48,-74.9 1315.79,-74.9 "/>
<text text-anchor="middle" x="934.69" y="-58.3" font-family="Courier New" font-size="14.00">string: recipientName (32)</text>
<polyline fill="none" stroke="black" points="554.48,-50.1 1315.79,-50.1 "/>
<text text-anchor="middle" x="935.09" y="-33.5" font-family="Courier New" font-size="14.00">uint256: paymentID (32)</text>
<polyline fill="none" stroke="black" points="554.48,-25.3 1315.79,-25.3 "/>
<text text-anchor="middle" x="934.99" y="-8.7" font-family="Courier New" font-size="14.00">uint256: amount (32)</text>
</g>
<!-- 4&#45;&gt;3 -->
<g id="edge2" class="edge">
<title>4:17&#45;&gt;3</title>
<path fill="none" stroke="black" d="M452.03,-137.3C460.56,-137.3 469.17,-137.21 477.84,-137.04"/>
<polygon fill="black" stroke="black" points="478.14,-140.53 488.05,-136.8 477.97,-133.53 478.14,-140.53"/>
</g>
<!-- 1 -->
<g id="node2" class="node">
<title>1</title>
<polygon fill="#f2f2f2" stroke="black" points="1351.79,-134.9 1351.79,-275.7 1922.28,-275.7 1922.28,-134.9 1351.79,-134.9"/>
<text text-anchor="middle" x="1637.04" y="-259.1" font-family="Courier New" font-size="14.00">History &lt;&lt;Struct&gt;&gt;</text>
<text text-anchor="middle" x="1637.04" y="-242.3" font-family="Courier New" font-size="14.00">0xc2575a0e9e593c00f959f8c92f12db2869c3395a3b0502d05e2516446f71f85b</text>
<polyline fill="none" stroke="black" points="1351.79,-234.1 1922.28,-234.1 "/>
<text text-anchor="middle" x="1420.99" y="-217.5" font-family="Courier New" font-size="14.00">offset</text>
<polyline fill="none" stroke="black" points="1351.79,-209.3 1490.2,-209.3 "/>
<text text-anchor="middle" x="1420.99" y="-192.7" font-family="Courier New" font-size="14.00">0</text>
<polyline fill="none" stroke="black" points="1351.79,-184.5 1490.2,-184.5 "/>
<text text-anchor="middle" x="1420.99" y="-167.9" font-family="Courier New" font-size="14.00">1</text>
<polyline fill="none" stroke="black" points="1351.79,-159.7 1490.2,-159.7 "/>
<text text-anchor="middle" x="1420.99" y="-143.1" font-family="Courier New" font-size="14.00">2</text>
<polyline fill="none" stroke="black" points="1490.2,-134.9 1490.2,-234.1 "/>
<text text-anchor="middle" x="1706.02" y="-217.5" font-family="Courier New" font-size="14.00">type: variable (bytes)</text>
<polyline fill="none" stroke="black" points="1490.2,-209.3 1921.85,-209.3 "/>
<text text-anchor="middle" x="1706.01" y="-192.7" font-family="Courier New" font-size="14.00">uint256: lastUpdate (32)</text>
<polyline fill="none" stroke="black" points="1490.2,-184.5 1921.85,-184.5 "/>
<text text-anchor="middle" x="1583.41" y="-167.9" font-family="Courier New" font-size="14.00">unallocated (12)</text>
<polyline fill="none" stroke="black" points="1676.62,-159.7 1676.62,-184.5 "/>
<text text-anchor="middle" x="1799.24" y="-167.9" font-family="Courier New" font-size="14.00">address: updatedBy (20)</text>
<polyline fill="none" stroke="black" points="1490.2,-159.7 1921.85,-159.7 "/>
<text text-anchor="middle" x="1705.72" y="-143.1" font-family="Courier New" font-size="14.00">uint256: blockNumber (32)</text>
</g>
<!-- 2&#45;&gt;1 -->
<g id="edge3" class="edge">
<title>2:7&#45;&gt;1</title>
<path fill="none" stroke="black" d="M1187.93,-205.3C1237.52,-205.3 1290.21,-205.3 1341.36,-205.3"/>
<polygon fill="black" stroke="black" points="1341.57,-208.8 1351.57,-205.3 1341.57,-201.8 1341.57,-208.8"/>
</g>
</g>
</svg>
